<svg width="353" height="70" viewBox="0 0 353 70" fill="none" xmlns="http://www.w3.org/2000/svg">
<rect width="353" height="70" rx="8" fill="#0043CE" fill-opacity="0.1"/>
<circle cx="17.5" cy="35" r="4" fill="#0043CE"/>
<rect x="29.5" y="8" width="54" height="54" rx="8" fill="#C4C4C4"/>
<path d="M107.989 13.42V22H105.935L102.932 16.956L102.191 15.552H102.178L102.23 17.034V22H100.618V13.42H102.659L105.662 18.451L106.403 19.868H106.429L106.377 18.386V13.42H107.989ZM112.947 15.37C113.597 15.37 114.173 15.5043 114.676 15.773C115.179 16.0417 115.569 16.4273 115.846 16.93C116.132 17.4327 116.275 18.0393 116.275 18.75C116.275 19.4607 116.132 20.0673 115.846 20.57C115.569 21.0727 115.179 21.4583 114.676 21.727C114.173 21.9957 113.597 22.13 112.947 22.13C112.288 22.13 111.708 21.9957 111.205 21.727C110.711 21.4583 110.321 21.0727 110.035 20.57C109.758 20.0673 109.619 19.4607 109.619 18.75C109.619 18.0393 109.758 17.4327 110.035 16.93C110.321 16.4273 110.711 16.0417 111.205 15.773C111.708 15.5043 112.288 15.37 112.947 15.37ZM112.947 16.696C112.462 16.696 112.08 16.8693 111.803 17.216C111.534 17.554 111.4 18.0653 111.4 18.75C111.4 19.4347 111.534 19.9503 111.803 20.297C112.08 20.635 112.462 20.804 112.947 20.804C113.424 20.804 113.796 20.635 114.065 20.297C114.342 19.9503 114.481 19.4347 114.481 18.75C114.481 18.0653 114.342 17.554 114.065 17.216C113.796 16.8693 113.424 16.696 112.947 16.696ZM122.07 15.5V16.826H119.99V19.881C119.99 20.193 120.068 20.4227 120.224 20.57C120.389 20.7087 120.61 20.778 120.887 20.778C121.112 20.778 121.303 20.7477 121.459 20.687C121.624 20.6177 121.771 20.5267 121.901 20.414L122.187 21.597C121.97 21.7617 121.706 21.8917 121.394 21.987C121.091 22.0823 120.766 22.13 120.419 22.13C119.769 22.13 119.236 21.9827 118.82 21.688C118.413 21.3847 118.209 20.8777 118.209 20.167V16.826H117.013V15.5H118.209V14.005L119.99 13.511V15.5H122.07ZM124.172 14.564C123.435 14.564 123.067 14.2477 123.067 13.615C123.067 12.9737 123.435 12.653 124.172 12.653C124.909 12.653 125.277 12.9737 125.277 13.615C125.277 14.2477 124.909 14.564 124.172 14.564ZM125.056 15.5V22H123.275V15.5H125.056ZM131.169 15.5V16.826H129.193V22H127.412V16.826H126.281V15.5H127.412V14.72C127.412 13.9833 127.641 13.433 128.101 13.069C128.56 12.705 129.141 12.523 129.843 12.523C130.146 12.523 130.419 12.5577 130.662 12.627C130.904 12.6877 131.091 12.7657 131.221 12.861L130.974 14.044C130.878 13.9833 130.77 13.9357 130.649 13.901C130.527 13.8663 130.384 13.849 130.22 13.849C129.882 13.849 129.613 13.927 129.414 14.083C129.214 14.2303 129.115 14.486 129.115 14.85V15.5H131.169ZM135.075 15.37C135.941 15.37 136.613 15.5563 137.09 15.929C137.575 16.3017 137.896 16.7523 138.051 17.281L136.388 17.879C136.214 17.0903 135.785 16.696 135.101 16.696C134.607 16.696 134.221 16.8693 133.944 17.216C133.675 17.5627 133.541 18.0783 133.541 18.763C133.541 19.4563 133.679 19.972 133.957 20.31C134.243 20.6393 134.628 20.804 135.114 20.804C135.868 20.804 136.318 20.4183 136.466 19.647L138.078 20.167C137.93 20.7477 137.601 21.22 137.09 21.584C136.587 21.948 135.933 22.13 135.127 22.13C134.451 22.13 133.857 21.9957 133.346 21.727C132.843 21.4583 132.453 21.0727 132.176 20.57C131.898 20.0673 131.76 19.4607 131.76 18.75C131.76 18.0393 131.898 17.4327 132.176 16.93C132.462 16.4273 132.852 16.0417 133.346 15.773C133.848 15.5043 134.425 15.37 135.075 15.37ZM143.166 17.853C143.166 17.4803 143.058 17.19 142.841 16.982C142.633 16.774 142.356 16.67 142.009 16.67C141.689 16.67 141.407 16.7523 141.164 16.917C140.922 17.0817 140.744 17.3547 140.631 17.736L139.11 17.268C139.258 16.696 139.578 16.2367 140.072 15.89C140.575 15.5433 141.247 15.37 142.087 15.37C142.937 15.37 143.621 15.5737 144.141 15.981C144.67 16.3797 144.934 16.9777 144.934 17.775V20.414C144.934 20.7433 145.09 20.908 145.402 20.908C145.55 20.908 145.688 20.8863 145.818 20.843L145.714 21.948C145.489 22.0607 145.207 22.117 144.869 22.117C144.497 22.117 144.172 22.039 143.894 21.883C143.626 21.727 143.444 21.493 143.348 21.181C143.14 21.493 142.841 21.7313 142.451 21.896C142.07 22.052 141.676 22.13 141.268 22.13C140.61 22.13 140.085 21.9827 139.695 21.688C139.314 21.3847 139.123 20.947 139.123 20.375C139.123 19.8897 139.279 19.4953 139.591 19.192C139.903 18.88 140.35 18.6677 140.93 18.555L143.166 18.1V17.853ZM140.904 20.206C140.904 20.4227 140.982 20.5873 141.138 20.7C141.303 20.8127 141.498 20.869 141.723 20.869C141.975 20.869 142.209 20.83 142.425 20.752C142.642 20.674 142.82 20.544 142.958 20.362C143.097 20.1713 143.166 19.92 143.166 19.608V19.205L141.801 19.478C141.507 19.5387 141.281 19.621 141.125 19.725C140.978 19.8203 140.904 19.9807 140.904 20.206ZM151.053 15.5V16.826H148.973V19.881C148.973 20.193 149.051 20.4227 149.207 20.57C149.372 20.7087 149.593 20.778 149.87 20.778C150.096 20.778 150.286 20.7477 150.442 20.687C150.607 20.6177 150.754 20.5267 150.884 20.414L151.17 21.597C150.954 21.7617 150.689 21.8917 150.377 21.987C150.074 22.0823 149.749 22.13 149.402 22.13C148.752 22.13 148.219 21.9827 147.803 21.688C147.396 21.3847 147.192 20.8777 147.192 20.167V16.826H145.996V15.5H147.192V14.005L148.973 13.511V15.5H151.053ZM153.155 14.564C152.419 14.564 152.05 14.2477 152.05 13.615C152.05 12.9737 152.419 12.653 153.155 12.653C153.892 12.653 154.26 12.9737 154.26 13.615C154.26 14.2477 153.892 14.564 153.155 14.564ZM154.039 15.5V22H152.258V15.5H154.039ZM158.891 15.37C159.541 15.37 160.118 15.5043 160.62 15.773C161.123 16.0417 161.513 16.4273 161.79 16.93C162.076 17.4327 162.219 18.0393 162.219 18.75C162.219 19.4607 162.076 20.0673 161.79 20.57C161.513 21.0727 161.123 21.4583 160.62 21.727C160.118 21.9957 159.541 22.13 158.891 22.13C158.233 22.13 157.652 21.9957 157.149 21.727C156.655 21.4583 156.265 21.0727 155.979 20.57C155.702 20.0673 155.563 19.4607 155.563 18.75C155.563 18.0393 155.702 17.4327 155.979 16.93C156.265 16.4273 156.655 16.0417 157.149 15.773C157.652 15.5043 158.233 15.37 158.891 15.37ZM158.891 16.696C158.406 16.696 158.025 16.8693 157.747 17.216C157.479 17.554 157.344 18.0653 157.344 18.75C157.344 19.4347 157.479 19.9503 157.747 20.297C158.025 20.635 158.406 20.804 158.891 20.804C159.368 20.804 159.741 20.635 160.009 20.297C160.287 19.9503 160.425 19.4347 160.425 18.75C160.425 18.0653 160.287 17.554 160.009 17.216C159.741 16.8693 159.368 16.696 158.891 16.696ZM163.709 22V15.5H165.308L165.373 16.722C165.573 16.2713 165.863 15.9333 166.244 15.708C166.634 15.4827 167.081 15.37 167.583 15.37C168.259 15.37 168.818 15.5693 169.26 15.968C169.702 16.358 169.923 16.9473 169.923 17.736V22H168.142V18.243C168.142 17.6883 168.03 17.307 167.804 17.099C167.588 16.8823 167.31 16.774 166.972 16.774C166.73 16.774 166.491 16.8347 166.257 16.956C166.032 17.0687 165.846 17.255 165.698 17.515C165.56 17.775 165.49 18.1217 165.49 18.555V22H163.709ZM179.961 15.5V16.826H177.881V19.881C177.881 20.193 177.959 20.4227 178.115 20.57C178.279 20.7087 178.5 20.778 178.778 20.778C179.003 20.778 179.194 20.7477 179.35 20.687C179.514 20.6177 179.662 20.5267 179.792 20.414L180.078 21.597C179.861 21.7617 179.597 21.8917 179.285 21.987C178.981 22.0823 178.656 22.13 178.31 22.13C177.66 22.13 177.127 21.9827 176.711 21.688C176.303 21.3847 176.1 20.8777 176.1 20.167V16.826H174.904V15.5H176.1V14.005L177.881 13.511V15.5H179.961ZM182.062 14.564C181.326 14.564 180.957 14.2477 180.957 13.615C180.957 12.9737 181.326 12.653 182.062 12.653C182.799 12.653 183.167 12.9737 183.167 13.615C183.167 14.2477 182.799 14.564 182.062 14.564ZM182.946 15.5V22H181.165V15.5H182.946ZM189.215 15.5V16.826H187.135V19.881C187.135 20.193 187.213 20.4227 187.369 20.57C187.534 20.7087 187.755 20.778 188.032 20.778C188.258 20.778 188.448 20.7477 188.604 20.687C188.769 20.6177 188.916 20.5267 189.046 20.414L189.332 21.597C189.116 21.7617 188.851 21.8917 188.539 21.987C188.236 22.0823 187.911 22.13 187.564 22.13C186.914 22.13 186.381 21.9827 185.965 21.688C185.558 21.3847 185.354 20.8777 185.354 20.167V16.826H184.158V15.5H185.354V14.005L187.135 13.511V15.5H189.215ZM192.175 12.653V19.998C192.175 20.3013 192.227 20.5137 192.331 20.635C192.435 20.7563 192.609 20.817 192.851 20.817C192.999 20.817 193.12 20.8083 193.215 20.791C193.311 20.7737 193.432 20.739 193.579 20.687L193.423 21.857C193.276 21.9437 193.09 22.0087 192.864 22.052C192.648 22.104 192.431 22.13 192.214 22.13C191.582 22.13 191.118 21.9783 190.823 21.675C190.537 21.363 190.394 20.869 190.394 20.193V12.653H192.175ZM197.588 22.13C196.565 22.13 195.746 21.8353 195.131 21.246C194.515 20.648 194.208 19.816 194.208 18.75C194.208 18.0393 194.346 17.4327 194.624 16.93C194.901 16.4273 195.287 16.0417 195.781 15.773C196.283 15.5043 196.855 15.37 197.497 15.37C198.155 15.37 198.714 15.5043 199.174 15.773C199.633 16.033 199.984 16.3927 200.227 16.852C200.469 17.3027 200.591 17.8183 200.591 18.399C200.591 18.5723 200.586 18.737 200.578 18.893C200.569 19.049 200.556 19.1877 200.539 19.309H195.95C196.019 19.8117 196.192 20.1887 196.47 20.44C196.756 20.6827 197.124 20.804 197.575 20.804C197.956 20.804 198.264 20.7303 198.498 20.583C198.732 20.4357 198.914 20.232 199.044 19.972L200.461 20.518C200.253 21.0293 199.889 21.428 199.369 21.714C198.849 21.9913 198.255 22.13 197.588 22.13ZM197.484 16.683C196.643 16.683 196.136 17.1467 195.963 18.074H198.888C198.836 17.6233 198.688 17.281 198.446 17.047C198.212 16.8043 197.891 16.683 197.484 16.683Z" fill="black"/>
<path d="M99.76 41L102.33 34.4H103.28L105.84 41H104.99L104.29 39.17H101.3L100.6 41H99.76ZM102.49 36.05L101.59 38.42H104L103.11 36.08L102.8 35.16H102.78L102.49 36.05ZM111.839 41.1C111.353 41.1 110.903 40.9967 110.489 40.79C110.083 40.5833 109.769 40.29 109.549 39.91L110.229 39.42C110.376 39.7267 110.589 39.9667 110.869 40.14C111.156 40.3133 111.499 40.4 111.899 40.4C112.253 40.4 112.529 40.3333 112.729 40.2C112.929 40.06 113.029 39.88 113.029 39.66C113.029 39.52 112.983 39.3933 112.889 39.28C112.803 39.16 112.633 39.0733 112.379 39.02L111.179 38.77C110.693 38.67 110.343 38.5033 110.129 38.27C109.923 38.0367 109.819 37.7467 109.819 37.4C109.819 37.1267 109.896 36.8767 110.049 36.65C110.209 36.4233 110.433 36.2433 110.719 36.11C111.013 35.97 111.356 35.9 111.749 35.9C112.243 35.9 112.659 35.9967 112.999 36.19C113.339 36.3833 113.593 36.6567 113.759 37.01L113.089 37.45C112.976 37.1567 112.793 36.9433 112.539 36.81C112.286 36.67 112.023 36.6 111.749 36.6C111.389 36.6 111.109 36.6733 110.909 36.82C110.709 36.9667 110.609 37.15 110.609 37.37C110.609 37.5167 110.659 37.6533 110.759 37.78C110.859 37.9 111.046 37.9867 111.319 38.04L112.569 38.3C113.036 38.3933 113.363 38.5467 113.549 38.76C113.736 38.9733 113.829 39.2333 113.829 39.54C113.829 40.0133 113.646 40.3933 113.279 40.68C112.913 40.96 112.433 41.1 111.839 41.1ZM117.403 41.1C116.929 41.1 116.506 40.9967 116.133 40.79C115.766 40.5833 115.479 40.2867 115.273 39.9C115.066 39.5067 114.963 39.04 114.963 38.5C114.963 37.96 115.066 37.4967 115.273 37.11C115.479 36.7167 115.763 36.4167 116.123 36.21C116.483 36.0033 116.893 35.9 117.353 35.9C117.819 35.9 118.216 36 118.543 36.2C118.876 36.4 119.129 36.6733 119.303 37.02C119.476 37.36 119.563 37.7433 119.563 38.17C119.563 38.2833 119.559 38.3867 119.553 38.48C119.546 38.5733 119.536 38.6567 119.523 38.73H115.753C115.793 39.2567 115.956 39.6667 116.243 39.96C116.529 40.2533 116.909 40.4 117.383 40.4C117.749 40.4 118.046 40.33 118.273 40.19C118.506 40.05 118.693 39.86 118.833 39.62L119.463 39.99C119.276 40.33 119.006 40.6 118.653 40.8C118.306 41 117.889 41.1 117.403 41.1ZM117.333 36.6C116.913 36.6 116.566 36.7267 116.293 36.98C116.026 37.2267 115.856 37.5733 115.783 38.02H118.763C118.743 37.5667 118.603 37.2167 118.343 36.97C118.083 36.7233 117.746 36.6 117.333 36.6ZM121.084 41V36H121.784L121.834 36.78C122.008 36.4667 122.244 36.2433 122.544 36.11C122.844 35.97 123.168 35.9 123.514 35.9C123.874 35.9 124.201 35.97 124.494 36.11C124.788 36.2433 125.021 36.45 125.194 36.73C125.374 37.01 125.464 37.3667 125.464 37.8V41H124.664V38.08C124.664 37.5267 124.544 37.1433 124.304 36.93C124.071 36.71 123.781 36.6 123.434 36.6C123.194 36.6 122.954 36.6567 122.714 36.77C122.474 36.8833 122.274 37.0667 122.114 37.32C121.961 37.5733 121.884 37.9133 121.884 38.34V41H121.084ZM130.207 36V36.69H128.387V39.62C128.387 39.8667 128.457 40.05 128.597 40.17C128.737 40.29 128.917 40.35 129.137 40.35C129.331 40.35 129.497 40.3167 129.637 40.25C129.777 40.1833 129.904 40.0933 130.017 39.98L130.297 40.65C130.144 40.79 129.961 40.9 129.747 40.98C129.541 41.06 129.301 41.1 129.027 41.1C128.774 41.1 128.537 41.0567 128.317 40.97C128.097 40.8767 127.921 40.7333 127.787 40.54C127.661 40.34 127.594 40.08 127.587 39.76V36.69H126.587V36H127.587V34.8L128.387 34.58V36H130.207ZM133.487 41.1C133.013 41.1 132.59 40.9967 132.217 40.79C131.85 40.5833 131.563 40.2867 131.357 39.9C131.15 39.5067 131.047 39.04 131.047 38.5C131.047 37.96 131.15 37.4967 131.357 37.11C131.563 36.7167 131.847 36.4167 132.207 36.21C132.567 36.0033 132.977 35.9 133.437 35.9C133.903 35.9 134.3 36 134.627 36.2C134.96 36.4 135.213 36.6733 135.387 37.02C135.56 37.36 135.647 37.7433 135.647 38.17C135.647 38.2833 135.643 38.3867 135.637 38.48C135.63 38.5733 135.62 38.6567 135.607 38.73H131.837C131.877 39.2567 132.04 39.6667 132.327 39.96C132.613 40.2533 132.993 40.4 133.467 40.4C133.833 40.4 134.13 40.33 134.357 40.19C134.59 40.05 134.777 39.86 134.917 39.62L135.547 39.99C135.36 40.33 135.09 40.6 134.737 40.8C134.39 41 133.973 41.1 133.487 41.1ZM133.417 36.6C132.997 36.6 132.65 36.7267 132.377 36.98C132.11 37.2267 131.94 37.5733 131.867 38.02H134.847C134.827 37.5667 134.687 37.2167 134.427 36.97C134.167 36.7233 133.83 36.6 133.417 36.6ZM137.168 41V36H137.868L137.918 36.78C138.092 36.4667 138.328 36.2433 138.628 36.11C138.928 35.97 139.252 35.9 139.598 35.9C139.958 35.9 140.285 35.97 140.578 36.11C140.872 36.2433 141.105 36.45 141.278 36.73C141.458 37.01 141.548 37.3667 141.548 37.8V41H140.748V38.08C140.748 37.5267 140.628 37.1433 140.388 36.93C140.155 36.71 139.865 36.6 139.518 36.6C139.278 36.6 139.038 36.6567 138.798 36.77C138.558 36.8833 138.358 37.0667 138.198 37.32C138.045 37.5733 137.968 37.9133 137.968 38.34V41H137.168ZM145.43 35.9C145.943 35.9 146.37 36.02 146.71 36.26C147.05 36.4933 147.313 36.8167 147.5 37.23L146.74 37.59C146.633 37.27 146.47 37.0267 146.25 36.86C146.036 36.6867 145.756 36.6 145.41 36.6C144.91 36.6 144.516 36.77 144.23 37.11C143.95 37.4433 143.81 37.9067 143.81 38.5C143.81 39.0933 143.95 39.56 144.23 39.9C144.516 40.2333 144.91 40.4 145.41 40.4C145.803 40.4 146.116 40.31 146.35 40.13C146.583 39.95 146.736 39.6967 146.81 39.37L147.55 39.63C147.383 40.09 147.12 40.45 146.76 40.71C146.406 40.97 145.963 41.1 145.43 41.1C144.963 41.1 144.546 40.9967 144.18 40.79C143.813 40.5833 143.526 40.2867 143.32 39.9C143.113 39.5067 143.01 39.04 143.01 38.5C143.01 37.96 143.113 37.4967 143.32 37.11C143.526 36.7167 143.813 36.4167 144.18 36.21C144.546 36.0033 144.963 35.9 145.43 35.9ZM151.045 41.1C150.572 41.1 150.149 40.9967 149.775 40.79C149.409 40.5833 149.122 40.2867 148.915 39.9C148.709 39.5067 148.605 39.04 148.605 38.5C148.605 37.96 148.709 37.4967 148.915 37.11C149.122 36.7167 149.405 36.4167 149.765 36.21C150.125 36.0033 150.535 35.9 150.995 35.9C151.462 35.9 151.859 36 152.185 36.2C152.519 36.4 152.772 36.6733 152.945 37.02C153.119 37.36 153.205 37.7433 153.205 38.17C153.205 38.2833 153.202 38.3867 153.195 38.48C153.189 38.5733 153.179 38.6567 153.165 38.73H149.395C149.435 39.2567 149.599 39.6667 149.885 39.96C150.172 40.2533 150.552 40.4 151.025 40.4C151.392 40.4 151.689 40.33 151.915 40.19C152.149 40.05 152.335 39.86 152.475 39.62L153.105 39.99C152.919 40.33 152.649 40.6 152.295 40.8C151.949 41 151.532 41.1 151.045 41.1ZM150.975 36.6C150.555 36.6 150.209 36.7267 149.935 36.98C149.669 37.2267 149.499 37.5733 149.425 38.02H152.405C152.385 37.5667 152.245 37.2167 151.985 36.97C151.725 36.7233 151.389 36.6 150.975 36.6ZM160.205 35.9C160.678 35.9 161.095 36.0033 161.455 36.21C161.822 36.4167 162.108 36.7167 162.315 37.11C162.522 37.4967 162.625 37.96 162.625 38.5C162.625 39.04 162.522 39.5067 162.315 39.9C162.108 40.2867 161.822 40.5833 161.455 40.79C161.095 40.9967 160.678 41.1 160.205 41.1C159.738 41.1 159.322 40.9967 158.955 40.79C158.588 40.5833 158.302 40.2867 158.095 39.9C157.888 39.5067 157.785 39.04 157.785 38.5C157.785 37.96 157.888 37.4967 158.095 37.11C158.302 36.7167 158.588 36.4167 158.955 36.21C159.322 36.0033 159.738 35.9 160.205 35.9ZM160.205 36.59C159.698 36.59 159.302 36.76 159.015 37.1C158.728 37.44 158.585 37.9067 158.585 38.5C158.585 39.0933 158.728 39.56 159.015 39.9C159.302 40.24 159.698 40.41 160.205 40.41C160.712 40.41 161.108 40.24 161.395 39.9C161.682 39.56 161.825 39.0933 161.825 38.5C161.825 37.9067 161.682 37.44 161.395 37.1C161.108 36.76 160.712 36.59 160.205 36.59ZM164.131 41V36H164.781L164.891 36.82C165.171 36.2067 165.705 35.9 166.491 35.9C166.578 35.9 166.671 35.9067 166.771 35.92C166.878 35.9333 166.968 35.96 167.041 36L166.901 36.73C166.828 36.7033 166.748 36.6833 166.661 36.67C166.575 36.6567 166.451 36.65 166.291 36.65C166.085 36.65 165.875 36.71 165.661 36.83C165.455 36.95 165.281 37.1333 165.141 37.38C165.001 37.62 164.931 37.9267 164.931 38.3V41H164.131ZM174.192 36V36.69H172.372V39.62C172.372 39.8667 172.442 40.05 172.582 40.17C172.722 40.29 172.902 40.35 173.122 40.35C173.315 40.35 173.482 40.3167 173.622 40.25C173.762 40.1833 173.888 40.0933 174.002 39.98L174.282 40.65C174.128 40.79 173.945 40.9 173.732 40.98C173.525 41.06 173.285 41.1 173.012 41.1C172.758 41.1 172.522 41.0567 172.302 40.97C172.082 40.8767 171.905 40.7333 171.772 40.54C171.645 40.34 171.578 40.08 171.572 39.76V36.69H170.572V36H171.572V34.8L172.372 34.58V36H174.192ZM181.651 36H182.541L180.801 41H180.001L178.591 37.02L177.261 41H176.461L174.721 36H175.611L176.871 40.07L178.231 36H179.031L180.391 40.07L181.651 36ZM185.654 35.9C186.128 35.9 186.544 36.0033 186.904 36.21C187.271 36.4167 187.558 36.7167 187.764 37.11C187.971 37.4967 188.074 37.96 188.074 38.5C188.074 39.04 187.971 39.5067 187.764 39.9C187.558 40.2867 187.271 40.5833 186.904 40.79C186.544 40.9967 186.128 41.1 185.654 41.1C185.188 41.1 184.771 40.9967 184.404 40.79C184.038 40.5833 183.751 40.2867 183.544 39.9C183.338 39.5067 183.234 39.04 183.234 38.5C183.234 37.96 183.338 37.4967 183.544 37.11C183.751 36.7167 184.038 36.4167 184.404 36.21C184.771 36.0033 185.188 35.9 185.654 35.9ZM185.654 36.59C185.148 36.59 184.751 36.76 184.464 37.1C184.178 37.44 184.034 37.9067 184.034 38.5C184.034 39.0933 184.178 39.56 184.464 39.9C184.751 40.24 185.148 40.41 185.654 40.41C186.161 40.41 186.558 40.24 186.844 39.9C187.131 39.56 187.274 39.0933 187.274 38.5C187.274 37.9067 187.131 37.44 186.844 37.1C186.558 36.76 186.161 36.59 185.654 36.59ZM195.059 35.9C195.532 35.9 195.949 36.0033 196.309 36.21C196.675 36.4167 196.962 36.7167 197.169 37.11C197.375 37.4967 197.479 37.96 197.479 38.5C197.479 39.04 197.375 39.5067 197.169 39.9C196.962 40.2867 196.675 40.5833 196.309 40.79C195.949 40.9967 195.532 41.1 195.059 41.1C194.592 41.1 194.175 40.9967 193.809 40.79C193.442 40.5833 193.155 40.2867 192.949 39.9C192.742 39.5067 192.639 39.04 192.639 38.5C192.639 37.96 192.742 37.4967 192.949 37.11C193.155 36.7167 193.442 36.4167 193.809 36.21C194.175 36.0033 194.592 35.9 195.059 35.9ZM195.059 36.59C194.552 36.59 194.155 36.76 193.869 37.1C193.582 37.44 193.439 37.9067 193.439 38.5C193.439 39.0933 193.582 39.56 193.869 39.9C194.155 40.24 194.552 40.41 195.059 40.41C195.565 40.41 195.962 40.24 196.249 39.9C196.535 39.56 196.679 39.0933 196.679 38.5C196.679 37.9067 196.535 37.44 196.249 37.1C195.962 36.76 195.565 36.59 195.059 36.59ZM201.757 36V36.69H200.087V41H199.287V36.69H198.287V36H199.287V35.16C199.287 34.7133 199.423 34.35 199.697 34.07C199.97 33.79 200.38 33.65 200.927 33.65C201.1 33.65 201.263 33.67 201.417 33.71C201.57 33.75 201.69 33.8067 201.777 33.88L201.567 34.53C201.407 34.43 201.217 34.38 200.997 34.38C200.71 34.38 200.487 34.45 200.327 34.59C200.167 34.7233 200.087 34.94 200.087 35.24V36H201.757ZM211.876 36H212.766L211.026 41H210.226L208.816 37.02L207.486 41H206.686L204.946 36H205.836L207.096 40.07L208.456 36H209.256L210.616 40.07L211.876 36ZM213.965 41V33.7H214.765V36.75C214.938 36.45 215.168 36.2333 215.455 36.1C215.742 35.9667 216.055 35.9 216.395 35.9C216.755 35.9 217.082 35.97 217.375 36.11C217.668 36.2433 217.902 36.45 218.075 36.73C218.255 37.01 218.345 37.3667 218.345 37.8V41H217.545V38.08C217.545 37.5267 217.425 37.1433 217.185 36.93C216.952 36.71 216.662 36.6 216.315 36.6C216.075 36.6 215.835 36.6567 215.595 36.77C215.355 36.8833 215.155 37.07 214.995 37.33C214.842 37.5833 214.765 37.9233 214.765 38.35V41H213.965ZM223.077 37.77C223.077 37.3967 222.977 37.11 222.777 36.91C222.577 36.7033 222.293 36.6 221.927 36.6C221.58 36.6 221.287 36.6767 221.047 36.83C220.807 36.9767 220.63 37.2167 220.517 37.55L219.867 37.15C220 36.7767 220.247 36.4767 220.607 36.25C220.967 36.0167 221.413 35.9 221.947 35.9C222.307 35.9 222.633 35.9633 222.927 36.09C223.22 36.21 223.45 36.3967 223.617 36.65C223.79 36.8967 223.877 37.2167 223.877 37.61V40.03C223.877 40.27 224.003 40.39 224.257 40.39C224.383 40.39 224.507 40.3733 224.627 40.34L224.587 40.97C224.453 41.0367 224.28 41.07 224.067 41.07C223.82 41.07 223.607 41.01 223.427 40.89C223.253 40.77 223.14 40.5867 223.087 40.34C222.913 40.6 222.677 40.7933 222.377 40.92C222.077 41.04 221.78 41.1 221.487 41.1C221.193 41.1 220.92 41.05 220.667 40.95C220.413 40.85 220.21 40.7 220.057 40.5C219.91 40.2933 219.837 40.04 219.837 39.74C219.837 39.3667 219.96 39.06 220.207 38.82C220.46 38.5733 220.81 38.4067 221.257 38.32L223.077 37.96V37.77ZM220.657 39.7C220.657 39.9067 220.737 40.0767 220.897 40.21C221.063 40.3367 221.297 40.4 221.597 40.4C221.857 40.4 222.097 40.3567 222.317 40.27C222.543 40.1767 222.727 40.04 222.867 39.86C223.007 39.6733 223.077 39.4367 223.077 39.15V38.62L221.627 38.92C221.3 38.9867 221.057 39.08 220.897 39.2C220.737 39.32 220.657 39.4867 220.657 39.7ZM228.625 36V36.69H226.805V39.62C226.805 39.8667 226.875 40.05 227.015 40.17C227.155 40.29 227.335 40.35 227.555 40.35C227.749 40.35 227.915 40.3167 228.055 40.25C228.195 40.1833 228.322 40.0933 228.435 39.98L228.715 40.65C228.562 40.79 228.379 40.9 228.165 40.98C227.959 41.06 227.719 41.1 227.445 41.1C227.192 41.1 226.955 41.0567 226.735 40.97C226.515 40.8767 226.339 40.7333 226.205 40.54C226.079 40.34 226.012 40.08 226.005 39.76V36.69H225.005V36H226.005V34.8L226.805 34.58V36H228.625ZM236.028 36V36.69H234.208V39.62C234.208 39.8667 234.278 40.05 234.418 40.17C234.558 40.29 234.738 40.35 234.958 40.35C235.151 40.35 235.318 40.3167 235.458 40.25C235.598 40.1833 235.724 40.0933 235.838 39.98L236.118 40.65C235.964 40.79 235.781 40.9 235.568 40.98C235.361 41.06 235.121 41.1 234.848 41.1C234.594 41.1 234.358 41.0567 234.138 40.97C233.918 40.8767 233.741 40.7333 233.608 40.54C233.481 40.34 233.414 40.08 233.408 39.76V36.69H232.408V36H233.408V34.8L234.208 34.58V36H236.028ZM237.217 41V33.7H238.017V36.75C238.19 36.45 238.42 36.2333 238.707 36.1C238.994 35.9667 239.307 35.9 239.647 35.9C240.007 35.9 240.334 35.97 240.627 36.11C240.92 36.2433 241.154 36.45 241.327 36.73C241.507 37.01 241.597 37.3667 241.597 37.8V41H240.797V38.08C240.797 37.5267 240.677 37.1433 240.437 36.93C240.204 36.71 239.914 36.6 239.567 36.6C239.327 36.6 239.087 36.6567 238.847 36.77C238.607 36.8833 238.407 37.07 238.247 37.33C238.094 37.5833 238.017 37.9233 238.017 38.35V41H237.217ZM245.499 41.1C245.025 41.1 244.602 40.9967 244.229 40.79C243.862 40.5833 243.575 40.2867 243.369 39.9C243.162 39.5067 243.059 39.04 243.059 38.5C243.059 37.96 243.162 37.4967 243.369 37.11C243.575 36.7167 243.859 36.4167 244.219 36.21C244.579 36.0033 244.989 35.9 245.449 35.9C245.915 35.9 246.312 36 246.639 36.2C246.972 36.4 247.225 36.6733 247.399 37.02C247.572 37.36 247.659 37.7433 247.659 38.17C247.659 38.2833 247.655 38.3867 247.649 38.48C247.642 38.5733 247.632 38.6567 247.619 38.73H243.849C243.889 39.2567 244.052 39.6667 244.339 39.96C244.625 40.2533 245.005 40.4 245.479 40.4C245.845 40.4 246.142 40.33 246.369 40.19C246.602 40.05 246.789 39.86 246.929 39.62L247.559 39.99C247.372 40.33 247.102 40.6 246.749 40.8C246.402 41 245.985 41.1 245.499 41.1ZM245.429 36.6C245.009 36.6 244.662 36.7267 244.389 36.98C244.122 37.2267 243.952 37.5733 243.879 38.02H246.859C246.839 37.5667 246.699 37.2167 246.439 36.97C246.179 36.7233 245.842 36.6 245.429 36.6ZM252.588 41V36H253.288L253.338 36.78C253.512 36.4667 253.748 36.2433 254.048 36.11C254.348 35.97 254.672 35.9 255.018 35.9C255.378 35.9 255.705 35.97 255.998 36.11C256.292 36.2433 256.525 36.45 256.698 36.73C256.878 37.01 256.968 37.3667 256.968 37.8V41H256.168V38.08C256.168 37.5267 256.048 37.1433 255.808 36.93C255.575 36.71 255.285 36.6 254.938 36.6C254.698 36.6 254.458 36.6567 254.218 36.77C253.978 36.8833 253.778 37.0667 253.618 37.32C253.465 37.5733 253.388 37.9133 253.388 38.34V41H252.588ZM260.85 35.9C261.323 35.9 261.74 36.0033 262.1 36.21C262.466 36.4167 262.753 36.7167 262.96 37.11C263.166 37.4967 263.27 37.96 263.27 38.5C263.27 39.04 263.166 39.5067 262.96 39.9C262.753 40.2867 262.466 40.5833 262.1 40.79C261.74 40.9967 261.323 41.1 260.85 41.1C260.383 41.1 259.966 40.9967 259.6 40.79C259.233 40.5833 258.946 40.2867 258.74 39.9C258.533 39.5067 258.43 39.04 258.43 38.5C258.43 37.96 258.533 37.4967 258.74 37.11C258.946 36.7167 259.233 36.4167 259.6 36.21C259.966 36.0033 260.383 35.9 260.85 35.9ZM260.85 36.59C260.343 36.59 259.946 36.76 259.66 37.1C259.373 37.44 259.23 37.9067 259.23 38.5C259.23 39.0933 259.373 39.56 259.66 39.9C259.946 40.24 260.343 40.41 260.85 40.41C261.356 40.41 261.753 40.24 262.04 39.9C262.326 39.56 262.47 39.0933 262.47 38.5C262.47 37.9067 262.326 37.44 262.04 37.1C261.753 36.76 261.356 36.59 260.85 36.59ZM267.688 36V36.69H265.868V39.62C265.868 39.8667 265.938 40.05 266.078 40.17C266.218 40.29 266.398 40.35 266.618 40.35C266.811 40.35 266.978 40.3167 267.118 40.25C267.258 40.1833 267.384 40.0933 267.498 39.98L267.778 40.65C267.624 40.79 267.441 40.9 267.228 40.98C267.021 41.06 266.781 41.1 266.508 41.1C266.254 41.1 266.018 41.0567 265.798 40.97C265.578 40.8767 265.401 40.7333 265.268 40.54C265.141 40.34 265.074 40.08 265.068 39.76V36.69H264.068V36H265.068V34.8L265.868 34.58V36H267.688ZM269.277 35.04C269.097 35.04 268.951 34.9867 268.837 34.88C268.731 34.7667 268.677 34.62 268.677 34.44C268.677 34.26 268.731 34.1167 268.837 34.01C268.951 33.8967 269.097 33.84 269.277 33.84C269.457 33.84 269.601 33.8967 269.707 34.01C269.821 34.1167 269.877 34.26 269.877 34.44C269.877 34.62 269.821 34.7667 269.707 34.88C269.601 34.9867 269.457 35.04 269.277 35.04ZM269.677 36V41H268.877V36H269.677ZM274.394 36V36.69H272.724V41H271.924V36.69H270.924V36H271.924V35.16C271.924 34.7133 272.06 34.35 272.334 34.07C272.607 33.79 273.017 33.65 273.564 33.65C273.737 33.65 273.9 33.67 274.054 33.71C274.207 33.75 274.327 33.8067 274.414 33.88L274.204 34.53C274.044 34.43 273.854 34.38 273.634 34.38C273.347 34.38 273.124 34.45 272.964 34.59C272.804 34.7233 272.724 34.94 272.724 35.24V36H274.394ZM275.859 35.04C275.679 35.04 275.533 34.9867 275.419 34.88C275.313 34.7667 275.259 34.62 275.259 34.44C275.259 34.26 275.313 34.1167 275.419 34.01C275.533 33.8967 275.679 33.84 275.859 33.84C276.039 33.84 276.183 33.8967 276.289 34.01C276.403 34.1167 276.459 34.26 276.459 34.44C276.459 34.62 276.403 34.7667 276.289 34.88C276.183 34.9867 276.039 35.04 275.859 35.04ZM276.259 36V41H275.459V36H276.259ZM280.186 35.9C280.699 35.9 281.126 36.02 281.466 36.26C281.806 36.4933 282.069 36.8167 282.256 37.23L281.496 37.59C281.389 37.27 281.226 37.0267 281.006 36.86C280.792 36.6867 280.512 36.6 280.166 36.6C279.666 36.6 279.272 36.77 278.986 37.11C278.706 37.4433 278.566 37.9067 278.566 38.5C278.566 39.0933 278.706 39.56 278.986 39.9C279.272 40.2333 279.666 40.4 280.166 40.4C280.559 40.4 280.872 40.31 281.106 40.13C281.339 39.95 281.492 39.6967 281.566 39.37L282.306 39.63C282.139 40.09 281.876 40.45 281.516 40.71C281.162 40.97 280.719 41.1 280.186 41.1C279.719 41.1 279.302 40.9967 278.936 40.79C278.569 40.5833 278.282 40.2867 278.076 39.9C277.869 39.5067 277.766 39.04 277.766 38.5C277.766 37.96 277.869 37.4967 278.076 37.11C278.282 36.7167 278.569 36.4167 278.936 36.21C279.302 36.0033 279.719 35.9 280.186 35.9ZM286.631 37.77C286.631 37.3967 286.531 37.11 286.331 36.91C286.131 36.7033 285.848 36.6 285.481 36.6C285.135 36.6 284.841 36.6767 284.601 36.83C284.361 36.9767 284.185 37.2167 284.071 37.55L283.421 37.15C283.555 36.7767 283.801 36.4767 284.161 36.25C284.521 36.0167 284.968 35.9 285.501 35.9C285.861 35.9 286.188 35.9633 286.481 36.09C286.775 36.21 287.005 36.3967 287.171 36.65C287.345 36.8967 287.431 37.2167 287.431 37.61V40.03C287.431 40.27 287.558 40.39 287.811 40.39C287.938 40.39 288.061 40.3733 288.181 40.34L288.141 40.97C288.008 41.0367 287.835 41.07 287.621 41.07C287.375 41.07 287.161 41.01 286.981 40.89C286.808 40.77 286.695 40.5867 286.641 40.34C286.468 40.6 286.231 40.7933 285.931 40.92C285.631 41.04 285.335 41.1 285.041 41.1C284.748 41.1 284.475 41.05 284.221 40.95C283.968 40.85 283.765 40.7 283.611 40.5C283.465 40.2933 283.391 40.04 283.391 39.74C283.391 39.3667 283.515 39.06 283.761 38.82C284.015 38.5733 284.365 38.4067 284.811 38.32L286.631 37.96V37.77ZM284.211 39.7C284.211 39.9067 284.291 40.0767 284.451 40.21C284.618 40.3367 284.851 40.4 285.151 40.4C285.411 40.4 285.651 40.3567 285.871 40.27C286.098 40.1767 286.281 40.04 286.421 39.86C286.561 39.6733 286.631 39.4367 286.631 39.15V38.62L285.181 38.92C284.855 38.9867 284.611 39.08 284.451 39.2C284.291 39.32 284.211 39.4867 284.211 39.7ZM292.18 36V36.69H290.36V39.62C290.36 39.8667 290.43 40.05 290.57 40.17C290.71 40.29 290.89 40.35 291.11 40.35C291.303 40.35 291.47 40.3167 291.61 40.25C291.75 40.1833 291.877 40.0933 291.99 39.98L292.27 40.65C292.117 40.79 291.933 40.9 291.72 40.98C291.513 41.06 291.273 41.1 291 41.1C290.747 41.1 290.51 41.0567 290.29 40.97C290.07 40.8767 289.893 40.7333 289.76 40.54C289.633 40.34 289.567 40.08 289.56 39.76V36.69H288.56V36H289.56V34.8L290.36 34.58V36H292.18ZM293.769 35.04C293.589 35.04 293.443 34.9867 293.329 34.88C293.223 34.7667 293.169 34.62 293.169 34.44C293.169 34.26 293.223 34.1167 293.329 34.01C293.443 33.8967 293.589 33.84 293.769 33.84C293.949 33.84 294.093 33.8967 294.199 34.01C294.313 34.1167 294.369 34.26 294.369 34.44C294.369 34.62 294.313 34.7667 294.199 34.88C294.093 34.9867 293.949 35.04 293.769 35.04ZM294.169 36V41H293.369V36H294.169ZM298.096 35.9C298.569 35.9 298.986 36.0033 299.346 36.21C299.712 36.4167 299.999 36.7167 300.206 37.11C300.412 37.4967 300.516 37.96 300.516 38.5C300.516 39.04 300.412 39.5067 300.206 39.9C299.999 40.2867 299.712 40.5833 299.346 40.79C298.986 40.9967 298.569 41.1 298.096 41.1C297.629 41.1 297.212 40.9967 296.846 40.79C296.479 40.5833 296.192 40.2867 295.986 39.9C295.779 39.5067 295.676 39.04 295.676 38.5C295.676 37.96 295.779 37.4967 295.986 37.11C296.192 36.7167 296.479 36.4167 296.846 36.21C297.212 36.0033 297.629 35.9 298.096 35.9ZM298.096 36.59C297.589 36.59 297.192 36.76 296.906 37.1C296.619 37.44 296.476 37.9067 296.476 38.5C296.476 39.0933 296.619 39.56 296.906 39.9C297.192 40.24 297.589 40.41 298.096 40.41C298.602 40.41 298.999 40.24 299.286 39.9C299.572 39.56 299.716 39.0933 299.716 38.5C299.716 37.9067 299.572 37.44 299.286 37.1C298.999 36.76 298.602 36.59 298.096 36.59ZM302.022 41V36H302.722L302.772 36.78C302.945 36.4667 303.182 36.2433 303.482 36.11C303.782 35.97 304.105 35.9 304.452 35.9C304.812 35.9 305.138 35.97 305.432 36.11C305.725 36.2433 305.958 36.45 306.132 36.73C306.312 37.01 306.402 37.3667 306.402 37.8V41H305.602V38.08C305.602 37.5267 305.482 37.1433 305.242 36.93C305.008 36.71 304.718 36.6 304.372 36.6C304.132 36.6 303.892 36.6567 303.652 36.77C303.412 36.8833 303.212 37.0667 303.052 37.32C302.898 37.5733 302.822 37.9133 302.822 38.34V41H302.022ZM100.83 50.04C100.65 50.04 100.503 49.9867 100.39 49.88C100.283 49.7667 100.23 49.62 100.23 49.44C100.23 49.26 100.283 49.1167 100.39 49.01C100.503 48.8967 100.65 48.84 100.83 48.84C101.01 48.84 101.153 48.8967 101.26 49.01C101.373 49.1167 101.43 49.26 101.43 49.44C101.43 49.62 101.373 49.7667 101.26 49.88C101.153 49.9867 101.01 50.04 100.83 50.04ZM101.23 51V56H100.43V51H101.23ZM104.886 56.1C104.4 56.1 103.95 55.9967 103.536 55.79C103.13 55.5833 102.816 55.29 102.596 54.91L103.276 54.42C103.423 54.7267 103.636 54.9667 103.916 55.14C104.203 55.3133 104.546 55.4 104.946 55.4C105.3 55.4 105.576 55.3333 105.776 55.2C105.976 55.06 106.076 54.88 106.076 54.66C106.076 54.52 106.03 54.3933 105.936 54.28C105.85 54.16 105.68 54.0733 105.426 54.02L104.226 53.77C103.74 53.67 103.39 53.5033 103.176 53.27C102.97 53.0367 102.866 52.7467 102.866 52.4C102.866 52.1267 102.943 51.8767 103.096 51.65C103.256 51.4233 103.48 51.2433 103.766 51.11C104.06 50.97 104.403 50.9 104.796 50.9C105.29 50.9 105.706 50.9967 106.046 51.19C106.386 51.3833 106.64 51.6567 106.806 52.01L106.136 52.45C106.023 52.1567 105.84 51.9433 105.586 51.81C105.333 51.67 105.07 51.6 104.796 51.6C104.436 51.6 104.156 51.6733 103.956 51.82C103.756 51.9667 103.656 52.15 103.656 52.37C103.656 52.5167 103.706 52.6533 103.806 52.78C103.906 52.9 104.093 52.9867 104.366 53.04L105.616 53.3C106.083 53.3933 106.41 53.5467 106.596 53.76C106.783 53.9733 106.876 54.2333 106.876 54.54C106.876 55.0133 106.693 55.3933 106.326 55.68C105.96 55.96 105.48 56.1 104.886 56.1ZM114.688 52.77C114.688 52.3967 114.588 52.11 114.388 51.91C114.188 51.7033 113.905 51.6 113.538 51.6C113.191 51.6 112.898 51.6767 112.658 51.83C112.418 51.9767 112.241 52.2167 112.128 52.55L111.478 52.15C111.611 51.7767 111.858 51.4767 112.218 51.25C112.578 51.0167 113.025 50.9 113.558 50.9C113.918 50.9 114.245 50.9633 114.538 51.09C114.831 51.21 115.061 51.3967 115.228 51.65C115.401 51.8967 115.488 52.2167 115.488 52.61V55.03C115.488 55.27 115.615 55.39 115.868 55.39C115.995 55.39 116.118 55.3733 116.238 55.34L116.198 55.97C116.065 56.0367 115.891 56.07 115.678 56.07C115.431 56.07 115.218 56.01 115.038 55.89C114.865 55.77 114.751 55.5867 114.698 55.34C114.525 55.6 114.288 55.7933 113.988 55.92C113.688 56.04 113.391 56.1 113.098 56.1C112.805 56.1 112.531 56.05 112.278 55.95C112.025 55.85 111.821 55.7 111.668 55.5C111.521 55.2933 111.448 55.04 111.448 54.74C111.448 54.3667 111.571 54.06 111.818 53.82C112.071 53.5733 112.421 53.4067 112.868 53.32L114.688 52.96V52.77ZM112.268 54.7C112.268 54.9067 112.348 55.0767 112.508 55.21C112.675 55.3367 112.908 55.4 113.208 55.4C113.468 55.4 113.708 55.3567 113.928 55.27C114.155 55.1767 114.338 55.04 114.478 54.86C114.618 54.6733 114.688 54.4367 114.688 54.15V53.62L113.238 53.92C112.911 53.9867 112.668 54.08 112.508 54.2C112.348 54.32 112.268 54.4867 112.268 54.7ZM119.882 56.1C119.502 56.1 119.162 56.01 118.862 55.83C118.562 55.65 118.335 55.4133 118.182 55.12L118.132 56H117.432V48.7H118.232V51.78C118.392 51.52 118.615 51.31 118.902 51.15C119.195 50.9833 119.525 50.9 119.892 50.9C120.305 50.9 120.685 51.0033 121.032 51.21C121.379 51.4167 121.655 51.7133 121.862 52.1C122.069 52.4867 122.172 52.9533 122.172 53.5C122.172 54.04 122.065 54.5067 121.852 54.9C121.645 55.2867 121.369 55.5833 121.022 55.79C120.675 55.9967 120.295 56.1 119.882 56.1ZM119.802 55.4C120.295 55.4 120.679 55.2267 120.952 54.88C121.232 54.5333 121.372 54.0733 121.372 53.5C121.372 52.9267 121.235 52.4667 120.962 52.12C120.689 51.7733 120.305 51.6 119.812 51.6C119.345 51.6 118.965 51.7767 118.672 52.13C118.379 52.4833 118.232 52.9467 118.232 53.52C118.232 54.0933 118.375 54.55 118.662 54.89C118.955 55.23 119.335 55.4 119.802 55.4ZM125.771 50.9C126.245 50.9 126.661 51.0033 127.021 51.21C127.388 51.4167 127.675 51.7167 127.881 52.11C128.088 52.4967 128.191 52.96 128.191 53.5C128.191 54.04 128.088 54.5067 127.881 54.9C127.675 55.2867 127.388 55.5833 127.021 55.79C126.661 55.9967 126.245 56.1 125.771 56.1C125.305 56.1 124.888 55.9967 124.521 55.79C124.155 55.5833 123.868 55.2867 123.661 54.9C123.455 54.5067 123.351 54.04 123.351 53.5C123.351 52.96 123.455 52.4967 123.661 52.11C123.868 51.7167 124.155 51.4167 124.521 51.21C124.888 51.0033 125.305 50.9 125.771 50.9ZM125.771 51.59C125.265 51.59 124.868 51.76 124.581 52.1C124.295 52.44 124.151 52.9067 124.151 53.5C124.151 54.0933 124.295 54.56 124.581 54.9C124.868 55.24 125.265 55.41 125.771 55.41C126.278 55.41 126.675 55.24 126.961 54.9C127.248 54.56 127.391 54.0933 127.391 53.5C127.391 52.9067 127.248 52.44 126.961 52.1C126.675 51.76 126.278 51.59 125.771 51.59ZM131.508 56.1C131.188 56.1 130.884 56.04 130.598 55.92C130.318 55.8 130.088 55.6067 129.908 55.34C129.734 55.0667 129.648 54.7133 129.648 54.28V51H130.448V54.07C130.448 54.5767 130.558 54.9267 130.778 55.12C130.998 55.3067 131.308 55.4 131.708 55.4C131.961 55.4 132.201 55.3433 132.428 55.23C132.654 55.11 132.841 54.9267 132.988 54.68C133.134 54.4333 133.208 54.1133 133.208 53.72V51H134.008V56H133.308L133.258 55.24C133.084 55.54 132.848 55.76 132.548 55.9C132.254 56.0333 131.908 56.1 131.508 56.1ZM138.869 51V51.69H137.049V54.62C137.049 54.8667 137.119 55.05 137.259 55.17C137.399 55.29 137.579 55.35 137.799 55.35C137.993 55.35 138.159 55.3167 138.299 55.25C138.439 55.1833 138.566 55.0933 138.679 54.98L138.959 55.65C138.806 55.79 138.623 55.9 138.409 55.98C138.203 56.06 137.963 56.1 137.689 56.1C137.436 56.1 137.199 56.0567 136.979 55.97C136.759 55.8767 136.583 55.7333 136.449 55.54C136.323 55.34 136.256 55.08 136.249 54.76V51.69H135.249V51H136.249V49.8L137.049 49.58V51H138.869ZM145.287 48.49L145.747 48.95C145.087 49.5567 144.624 50.2067 144.357 50.9C144.097 51.5933 143.967 52.3567 143.967 53.19C143.967 54.0233 144.097 54.7867 144.357 55.48C144.624 56.1733 145.087 56.8233 145.747 57.43L145.287 57.89C143.86 56.6567 143.147 55.09 143.147 53.19C143.147 51.29 143.86 49.7233 145.287 48.49ZM146.612 56V51H147.312L147.362 51.78C147.542 51.4733 147.775 51.25 148.062 51.11C148.355 50.97 148.655 50.9 148.962 50.9C149.315 50.9 149.648 50.98 149.962 51.14C150.275 51.3 150.515 51.5467 150.682 51.88C150.788 51.6533 150.938 51.47 151.132 51.33C151.325 51.1833 151.535 51.0767 151.762 51.01C151.995 50.9367 152.215 50.9 152.422 50.9C152.742 50.9 153.045 50.9667 153.332 51.1C153.625 51.2333 153.865 51.44 154.052 51.72C154.238 52 154.332 52.36 154.332 52.8V56H153.532V52.88C153.532 52.4267 153.418 52.1 153.192 51.9C152.965 51.7 152.685 51.6 152.352 51.6C152.092 51.6 151.848 51.6633 151.622 51.79C151.395 51.9167 151.212 52.1033 151.072 52.35C150.938 52.5967 150.872 52.9 150.872 53.26V56H150.072V52.88C150.072 52.4267 149.958 52.1 149.732 51.9C149.505 51.7 149.225 51.6 148.892 51.6C148.672 51.6 148.445 51.66 148.212 51.78C147.985 51.8933 147.795 52.0767 147.642 52.33C147.488 52.5833 147.412 52.9167 147.412 53.33V56H146.612ZM159.063 52.77C159.063 52.3967 158.963 52.11 158.763 51.91C158.563 51.7033 158.28 51.6 157.913 51.6C157.566 51.6 157.273 51.6767 157.033 51.83C156.793 51.9767 156.616 52.2167 156.503 52.55L155.853 52.15C155.986 51.7767 156.233 51.4767 156.593 51.25C156.953 51.0167 157.4 50.9 157.933 50.9C158.293 50.9 158.62 50.9633 158.913 51.09C159.206 51.21 159.436 51.3967 159.603 51.65C159.776 51.8967 159.863 52.2167 159.863 52.61V55.03C159.863 55.27 159.99 55.39 160.243 55.39C160.37 55.39 160.493 55.3733 160.613 55.34L160.573 55.97C160.44 56.0367 160.266 56.07 160.053 56.07C159.806 56.07 159.593 56.01 159.413 55.89C159.24 55.77 159.126 55.5867 159.073 55.34C158.9 55.6 158.663 55.7933 158.363 55.92C158.063 56.04 157.766 56.1 157.473 56.1C157.18 56.1 156.906 56.05 156.653 55.95C156.4 55.85 156.196 55.7 156.043 55.5C155.896 55.2933 155.823 55.04 155.823 54.74C155.823 54.3667 155.946 54.06 156.193 53.82C156.446 53.5733 156.796 53.4067 157.243 53.32L159.063 52.96V52.77ZM156.643 54.7C156.643 54.9067 156.723 55.0767 156.883 55.21C157.05 55.3367 157.283 55.4 157.583 55.4C157.843 55.4 158.083 55.3567 158.303 55.27C158.53 55.1767 158.713 55.04 158.853 54.86C158.993 54.6733 159.063 54.4367 159.063 54.15V53.62L157.613 53.92C157.286 53.9867 157.043 54.08 156.883 54.2C156.723 54.32 156.643 54.4867 156.643 54.7ZM162.287 51L163.607 52.85L164.907 51H165.847L164.037 53.45L165.877 56H164.897L163.517 54.07L162.097 56H161.167L163.087 53.48L161.287 51H162.287ZM170.162 56V55.35C170.822 54.8633 171.372 54.4367 171.812 54.07C172.259 53.7033 172.615 53.37 172.882 53.07C173.149 52.77 173.339 52.4867 173.452 52.22C173.565 51.9467 173.622 51.6633 173.622 51.37C173.622 50.9767 173.495 50.66 173.242 50.42C172.995 50.1733 172.655 50.05 172.222 50.05C171.769 50.05 171.405 50.2 171.132 50.5C170.859 50.7933 170.699 51.1867 170.652 51.68L169.952 51.26C170.039 50.6867 170.275 50.2167 170.662 49.85C171.055 49.4833 171.585 49.3 172.252 49.3C172.705 49.3 173.095 49.39 173.422 49.57C173.755 49.7433 174.012 49.9867 174.192 50.3C174.372 50.6067 174.462 50.9633 174.462 51.37C174.462 51.7833 174.362 52.19 174.162 52.59C173.962 52.9833 173.632 53.3967 173.172 53.83C172.712 54.2633 172.089 54.7433 171.302 55.27V55.28C171.375 55.2733 171.475 55.27 171.602 55.27C171.735 55.2633 171.865 55.26 171.992 55.26C172.125 55.2533 172.225 55.25 172.292 55.25H174.602V56H170.162ZM180.35 48.7V54.73C180.35 54.9833 180.397 55.16 180.49 55.26C180.583 55.3533 180.733 55.4 180.94 55.4C181.073 55.4 181.183 55.39 181.27 55.37C181.357 55.35 181.473 55.3133 181.62 55.26L181.49 55.96C181.27 56.0533 181.023 56.1 180.75 56.1C179.95 56.1 179.55 55.6533 179.55 54.76V48.7H180.35ZM183.047 50.04C182.867 50.04 182.72 49.9867 182.607 49.88C182.5 49.7667 182.447 49.62 182.447 49.44C182.447 49.26 182.5 49.1167 182.607 49.01C182.72 48.8967 182.867 48.84 183.047 48.84C183.227 48.84 183.37 48.8967 183.477 49.01C183.59 49.1167 183.647 49.26 183.647 49.44C183.647 49.62 183.59 49.7667 183.477 49.88C183.37 49.9867 183.227 50.04 183.047 50.04ZM183.447 51V56H182.647V51H183.447ZM185.303 56V51H186.003L186.053 51.78C186.226 51.4667 186.463 51.2433 186.763 51.11C187.063 50.97 187.386 50.9 187.733 50.9C188.093 50.9 188.42 50.97 188.713 51.11C189.006 51.2433 189.24 51.45 189.413 51.73C189.593 52.01 189.683 52.3667 189.683 52.8V56H188.883V53.08C188.883 52.5267 188.763 52.1433 188.523 51.93C188.29 51.71 188 51.6 187.653 51.6C187.413 51.6 187.173 51.6567 186.933 51.77C186.693 51.8833 186.493 52.0667 186.333 52.32C186.18 52.5733 186.103 52.9133 186.103 53.34V56H185.303ZM193.584 56.1C193.111 56.1 192.688 55.9967 192.314 55.79C191.948 55.5833 191.661 55.2867 191.454 54.9C191.248 54.5067 191.144 54.04 191.144 53.5C191.144 52.96 191.248 52.4967 191.454 52.11C191.661 51.7167 191.944 51.4167 192.304 51.21C192.664 51.0033 193.074 50.9 193.534 50.9C194.001 50.9 194.398 51 194.724 51.2C195.058 51.4 195.311 51.6733 195.484 52.02C195.658 52.36 195.744 52.7433 195.744 53.17C195.744 53.2833 195.741 53.3867 195.734 53.48C195.728 53.5733 195.718 53.6567 195.704 53.73H191.934C191.974 54.2567 192.138 54.6667 192.424 54.96C192.711 55.2533 193.091 55.4 193.564 55.4C193.931 55.4 194.228 55.33 194.454 55.19C194.688 55.05 194.874 54.86 195.014 54.62L195.644 54.99C195.458 55.33 195.188 55.6 194.834 55.8C194.488 56 194.071 56.1 193.584 56.1ZM193.514 51.6C193.094 51.6 192.748 51.7267 192.474 51.98C192.208 52.2267 192.038 52.5733 191.964 53.02H194.944C194.924 52.5667 194.784 52.2167 194.524 51.97C194.264 51.7233 193.928 51.6 193.514 51.6ZM199.066 56.1C198.579 56.1 198.129 55.9967 197.716 55.79C197.309 55.5833 196.996 55.29 196.776 54.91L197.456 54.42C197.603 54.7267 197.816 54.9667 198.096 55.14C198.383 55.3133 198.726 55.4 199.126 55.4C199.479 55.4 199.756 55.3333 199.956 55.2C200.156 55.06 200.256 54.88 200.256 54.66C200.256 54.52 200.209 54.3933 200.116 54.28C200.029 54.16 199.859 54.0733 199.606 54.02L198.406 53.77C197.919 53.67 197.569 53.5033 197.356 53.27C197.149 53.0367 197.046 52.7467 197.046 52.4C197.046 52.1267 197.123 51.8767 197.276 51.65C197.436 51.4233 197.659 51.2433 197.946 51.11C198.239 50.97 198.583 50.9 198.976 50.9C199.469 50.9 199.886 50.9967 200.226 51.19C200.566 51.3833 200.819 51.6567 200.986 52.01L200.316 52.45C200.203 52.1567 200.019 51.9433 199.766 51.81C199.513 51.67 199.249 51.6 198.976 51.6C198.616 51.6 198.336 51.6733 198.136 51.82C197.936 51.9667 197.836 52.15 197.836 52.37C197.836 52.5167 197.886 52.6533 197.986 52.78C198.086 52.9 198.273 52.9867 198.546 53.04L199.796 53.3C200.263 53.3933 200.589 53.5467 200.776 53.76C200.963 53.9733 201.056 54.2333 201.056 54.54C201.056 55.0133 200.873 55.3933 200.506 55.68C200.139 55.96 199.659 56.1 199.066 56.1ZM201.93 57.89L201.47 57.43C202.13 56.8233 202.59 56.1733 202.85 55.48C203.116 54.7867 203.25 54.0233 203.25 53.19C203.25 52.3567 203.116 51.5933 202.85 50.9C202.59 50.2067 202.13 49.5567 201.47 48.95L201.93 48.49C203.356 49.7233 204.07 51.29 204.07 53.19C204.07 55.09 203.356 56.6567 201.93 57.89Z" fill="black"/>
<g clip-path="url(#clip0_123_93)">
<path d="M321.5 42C321.5 43.1 322.4 44 323.5 44H331.5C332.6 44 333.5 43.1 333.5 42V32C333.5 30.9 332.6 30 331.5 30H323.5C322.4 30 321.5 30.9 321.5 32V42ZM324.5 32H330.5C331.05 32 331.5 32.45 331.5 33V41C331.5 41.55 331.05 42 330.5 42H324.5C323.95 42 323.5 41.55 323.5 41V33C323.5 32.45 323.95 32 324.5 32ZM331 27L330.29 26.29C330.11 26.11 329.85 26 329.59 26H325.41C325.15 26 324.89 26.11 324.71 26.29L324 27H321.5C320.95 27 320.5 27.45 320.5 28C320.5 28.55 320.95 29 321.5 29H333.5C334.05 29 334.5 28.55 334.5 28C334.5 27.45 334.05 27 333.5 27H331Z" fill="#161616"/>
</g>
<defs>
<clipPath id="clip0_123_93">
<rect width="24" height="24" fill="white" transform="translate(315.5 23)"/>
</clipPath>
</defs>
</svg>
